<svg width="33" height="33" viewBox="0 0 33 33" fill="none" xmlns="http://www.w3.org/2000/svg">
<path d="M11.0906 1.27057C12.8411 0.482554 15.2713 1.4751 15.5751 3.47821C15.6683 4.85874 15.8939 6.531 14.7931 7.59572C13.9179 8.63036 12.39 8.71759 11.1719 8.36869C9.83043 7.85739 9.09054 6.41371 9.25596 5.01814C9.06347 3.53836 9.58981 1.84203 11.0906 1.27057ZM11.4455 2.48868C10.0831 3.19248 10.4951 4.95498 10.5944 6.19114C11.1658 7.82431 14.0502 7.67693 14.3419 5.90841C14.4292 4.8076 14.6277 3.40001 13.6712 2.60598C13.0065 2.224 12.1343 2.07362 11.4455 2.48868Z" fill="#444444"/>
<path d="M13.8095 9.66781C15.0125 7.92937 18.0112 8.01058 19.124 9.81218C19.891 10.9942 19.5241 12.48 19.5511 13.8034C19.106 14.6245 18.5435 15.4967 17.5871 15.7584C15.8426 16.4381 13.4786 15.3914 13.2621 13.4214C13.241 12.1732 12.9733 10.7265 13.8095 9.66781ZM15.5359 9.80316C14.1072 10.4137 14.414 12.2544 14.5313 13.4966C15.0998 15.1147 17.7164 15.1237 18.2849 13.5056C18.4022 12.6695 18.4082 11.8123 18.2969 10.9762C17.9962 9.81519 16.5675 9.36103 15.5359 9.80316Z" fill="#444444"/>
<path d="M7.2497 8.87011C8.46781 8.54528 9.96564 8.65656 10.8529 9.65511C11.8815 10.7469 11.6951 12.3891 11.5808 13.7606C11.3552 15.5923 9.20469 16.648 7.52941 16.1036C6.08572 15.7667 5.10522 14.2869 5.31275 12.8222C5.11123 11.2793 5.57442 9.36638 7.2497 8.87011ZM6.63312 11.0507C6.46469 12.3139 6.29026 13.8027 7.28279 14.7892C8.33849 15.1622 9.4784 14.9877 10.2664 14.1516C10.4048 13.0688 10.6664 11.9109 10.2002 10.8702C9.50546 9.52278 7.15646 9.60098 6.63312 11.0507Z" fill="#444444"/>
<path d="M23.4642 8.8319C24.6282 8.55519 26.0057 8.68453 26.8568 9.6139C27.9877 10.7749 27.7682 12.5644 27.5817 14.0322C27.0132 16.3541 23.6567 16.9947 22.1258 15.2473C21.1693 14.2848 21.3077 12.8502 21.3438 11.611C21.3137 10.3418 22.2611 9.17177 23.4642 8.8319ZM23.1845 10.3598C22.6341 10.7989 22.5378 11.5538 22.5589 12.2125C22.5559 13.0066 22.4566 13.981 23.1784 14.5224C24.2041 15.4909 26.2583 14.9194 26.4478 13.4637C26.4508 12.5283 26.6734 11.4666 26.1109 10.6425C25.4282 9.75826 24.0296 9.68909 23.1845 10.3598Z" fill="#444444"/>
<path d="M19.7678 1.1476C20.9529 0.84082 22.3966 1.13557 23.1635 2.15517C24.0869 3.28606 23.8312 4.85005 23.753 6.19749C23.347 8.59161 19.8731 9.37962 18.3241 7.62614C17.2624 6.6697 17.4128 5.13277 17.467 3.84548C17.5331 2.5582 18.4866 1.38521 19.7678 1.1476ZM19.2625 2.7537C18.4475 3.47855 18.6851 4.6726 18.6941 5.63807C18.6971 6.49225 19.4731 7.25319 20.3152 7.2983C20.9739 7.39756 21.5875 7.09679 22.192 6.88024C22.7665 5.49069 22.944 3.63796 21.8281 2.46797C20.9769 2.29353 19.9603 2.07096 19.2625 2.7537Z" fill="#444444"/>
<path d="M10.814 18.0585C13.96 16.29 17.9452 16.1096 21.2176 17.6555C22.7274 18.1638 23.8733 19.6225 23.8132 21.2437C23.7951 23.2889 23.8733 25.3401 23.7771 27.3854C23.6418 29.0065 22.1319 29.9118 20.7484 30.387C20.6792 31.2743 21.1694 33.2293 19.6476 32.7992C19.4069 31.5751 19.5513 30.3209 19.5182 29.0847C19.5543 26.5131 19.428 23.9386 19.5994 21.37C19.9423 21.5174 20.7032 21.2557 20.6882 21.8181C20.8296 24.2363 20.6702 26.6665 20.7694 29.0907C21.2627 28.793 21.765 28.4922 22.2612 28.1914C22.7816 26.841 22.565 25.3792 22.6011 23.9716C22.568 22.8558 22.6763 21.7339 22.5289 20.6271C22.2161 19.3128 20.8386 18.7744 19.6987 18.3804C17.0489 17.442 14.0202 17.7277 11.5629 19.0721C10.6396 19.5173 10.1403 20.5579 10.2275 21.5625C10.2516 23.4754 10.1523 25.3943 10.2726 27.3072C10.3869 28.2426 11.2892 28.7057 12.0471 29.0787C12.1223 26.7628 12.0351 24.4439 12.0983 22.1279C11.9479 21.4272 12.766 21.4241 13.2201 21.37C13.3615 25.0815 13.3344 28.808 13.2352 32.5195C12.8863 32.5285 12.5374 32.5375 12.1945 32.5435C12.1073 31.8307 12.0742 31.1119 12.0471 30.3931C10.6967 29.8938 9.21993 29.0366 9.04248 27.4576C8.90412 25.4905 9.02743 23.5115 8.98232 21.5384C8.90412 20.1639 9.58687 18.7323 10.814 18.0585Z" fill="#444444"/>
<path d="M23.9967 16.8953C26.1863 16.787 28.3939 17.3344 30.2888 18.4352C31.3746 19.0428 32.0062 20.309 31.934 21.5392C31.8889 23.6566 32.0212 25.786 31.8588 27.8974C31.555 29.5215 29.976 30.2735 28.5774 30.7697C28.5022 31.3442 28.6225 31.9848 28.3007 32.5022C28.0751 32.5232 27.627 32.5713 27.4014 32.5924C27.2751 28.9501 27.257 25.2927 27.4044 21.6504C27.9277 21.6474 28.6376 21.7106 28.5112 22.4475C28.5834 24.7724 28.4691 27.1034 28.5624 29.4313C29.4647 29.0644 30.6106 28.5771 30.6738 27.4432C30.7339 25.398 30.6948 23.3498 30.6948 21.3046C30.7159 20.6308 30.3549 19.9902 29.8075 19.6173C28.1112 18.4894 26.048 18.1134 24.0448 18.0503C24.0208 17.6653 24.0057 17.2803 23.9967 16.8953Z" fill="#444444"/>
<path d="M2.55781 18.5219C4.48573 17.385 6.7475 16.7353 8.99725 16.9128C9.00326 17.1955 9.01529 17.7579 9.0183 18.0376C6.95503 18.1068 4.81056 18.4858 3.08415 19.6859C2.21193 20.3115 2.23299 21.4965 2.22697 22.4589C2.28111 24.1733 2.10967 25.8997 2.3563 27.6051C2.44954 28.5344 3.39695 29.0006 4.15489 29.3375C4.21805 26.772 4.06766 24.2004 4.24511 21.6409C4.72033 21.6559 5.47827 21.7461 5.37902 22.4168C5.39105 25.241 5.38502 28.0622 5.38803 30.8865C5.39705 31.4519 5.32488 32.0173 5.19254 32.5677C4.87072 32.5497 4.55191 32.5347 4.2361 32.5166C4.19099 31.9241 4.1639 31.3286 4.14887 30.7361C2.89166 30.1586 1.39082 29.4247 1.14118 27.9028C0.876509 25.9027 1.07803 23.8695 1.01186 21.8574C0.948695 20.5821 1.42391 19.2106 2.55781 18.5219Z" fill="#444444"/>
</svg>
