<svg width="33" height="33" viewBox="0 0 33 33" fill="none" xmlns="http://www.w3.org/2000/svg">
<g clip-path="url(#clip0_973_6190)">
<path d="M15.867 0H17.3511C17.3486 1.15792 17.3462 2.31583 17.3337 3.47375C19.0917 3.52853 20.8548 3.41897 22.6103 3.52107C23.1457 3.46379 23.2552 4.0689 23.2378 4.47479C23.2353 7.99588 23.2478 11.5169 23.2278 15.0405C25.0656 15.033 26.9058 15.0056 28.7436 15.0604C28.883 15.5086 29 15.9668 28.9926 16.4399C28.9851 22.0129 28.9652 27.5858 29 33.1588C28.5045 33.1538 28.0089 33.1513 27.5159 33.1488C27.5483 27.6157 27.5084 22.0801 27.5358 16.5445C25.6956 16.5346 23.8554 16.537 22.0177 16.5246C21.8807 16.0888 21.7337 15.6481 21.7512 15.1874C21.7687 11.7809 21.7661 8.37436 21.7562 4.97033C18.3173 4.96286 14.8809 4.96784 11.4445 4.96037C11.442 9.61693 11.447 14.276 11.4445 18.9326C11.4445 19.3011 11.3822 19.9037 10.8892 19.9012C9.41254 20.0332 7.92841 19.9211 6.44677 19.9461C6.47417 24.3486 6.41192 28.7512 6.47418 33.1538C5.98113 33.1588 5.48807 33.1638 5 33.1712C5.01743 28.674 5.00996 24.1768 5.00249 19.6771C5.01743 19.2961 4.98755 18.8678 5.2764 18.5665C6.83274 18.3225 8.42145 18.5267 9.99274 18.4619C9.94543 14.0494 9.99772 9.63688 9.96286 5.22681C9.95539 4.66404 10.0276 4.10625 10.1372 3.55593C12.0371 3.40901 13.9446 3.52107 15.8471 3.47375C15.867 2.31583 15.867 1.15792 15.867 0Z" fill="#444444"/>
<path d="M12.8744 7.32093C15.3671 7.3309 17.8622 7.34833 20.3549 7.31348C20.3523 7.81399 20.3549 8.31697 20.3573 8.82001C17.8622 8.78264 15.3671 8.77519 12.8744 8.82001C12.8719 8.3195 12.8719 7.82144 12.8744 7.32093Z" fill="#444444"/>
<path d="M12.8694 18.3766C15.3645 18.414 17.8621 18.4114 20.3572 18.3691C20.3522 18.8721 20.3522 19.3752 20.3522 19.8781C17.8596 19.8607 15.367 19.8483 12.8768 19.8831C12.8718 19.3801 12.8718 18.8771 12.8694 18.3766Z" fill="#444444"/>
<path d="M12.8743 10.999C15.3644 11.0115 17.8545 11.0115 20.3472 11.0015C20.3497 11.5021 20.3572 12.005 20.3696 12.5056C17.867 12.4732 15.3644 12.4807 12.8618 12.5006C12.8668 12.0001 12.8718 11.4995 12.8743 10.999Z" fill="#444444"/>
<path d="M12.8711 14.6725C15.3936 14.7123 17.9161 14.7223 20.4411 14.665L20.2445 14.9165C19.9531 15.188 20.0079 15.6437 20.2644 15.9151L20.4561 16.199C17.9286 16.189 15.3986 16.1641 12.8711 16.2114C12.8711 15.6984 12.8711 15.1854 12.8711 14.6725Z" fill="#444444"/>
<path d="M20.2649 15.9146C20.0084 15.6432 19.9537 15.1875 20.245 14.916C20.4766 15.2422 20.4841 15.5759 20.2649 15.9146Z" fill="#444444"/>
<path d="M7.62329 29.5524C8.582 29.4329 9.55315 29.4852 10.5193 29.4727C10.5243 29.9558 10.5343 30.4364 10.5467 30.9195C9.57805 30.9195 8.60441 30.9743 7.64073 30.8498C8.32303 30.2322 9.30164 30.648 10.1209 30.5186C10.1134 30.3792 10.0935 30.0978 10.0861 29.9558C9.25932 29.8513 8.3554 30.048 7.62329 29.5524Z" fill="#444444"/>
<path d="M23.1242 18.4049C24.0754 18.395 25.0292 18.3924 25.9829 18.4049C25.9729 18.8905 25.9729 19.3736 25.9729 19.8591C25.0242 19.8666 24.078 19.8641 23.1317 19.8741C23.1242 19.3836 23.1218 18.893 23.1242 18.4049Z" fill="#444444"/>
<path d="M7.69368 22.0801C8.64242 22.0975 9.59366 22.1 10.5424 22.0851C10.5349 22.5856 10.5324 23.0861 10.53 23.5866C9.5837 23.5592 8.63744 23.5617 7.69368 23.5916C7.6887 23.0886 7.6887 22.5856 7.69368 22.0801Z" fill="#444444"/>
<path d="M12.8738 22.0723C15.3689 22.1096 17.864 22.1022 20.3616 22.0748C20.3542 22.5803 20.3517 23.0883 20.3492 23.5938C17.859 23.5514 15.3689 23.5639 12.8788 23.5838C12.8762 23.0808 12.8738 22.5753 12.8738 22.0723Z" fill="#444444"/>
<path d="M23.064 23.4764C23.1013 23.0133 23.1237 22.5501 23.1461 22.0869C23.1885 22.2512 23.2731 22.5775 23.3154 22.7419C23.9654 22.5626 24.6327 22.453 25.3051 22.4081C25.3997 22.6422 25.4968 22.8788 25.5939 23.1129C24.7448 23.1453 23.8309 23.0232 23.064 23.4764Z" fill="#444444"/>
<path d="M23.1461 22.0869C24.0874 22.0994 25.0287 22.0994 25.9724 22.0969C25.9625 22.5824 25.9575 23.0681 25.96 23.5536C24.9938 23.5387 24.0252 23.601 23.064 23.4764C23.8309 23.0232 24.7448 23.1453 25.5939 23.1129C25.4968 22.8788 25.3997 22.6422 25.3051 22.4081C24.6327 22.453 23.9654 22.5626 23.3154 22.7419C23.2731 22.5775 23.1885 22.2512 23.1461 22.0869Z" fill="#444444"/>
<path d="M7.64136 25.8305C8.60006 25.7508 9.56375 25.7882 10.5249 25.7807C10.5225 26.2738 10.5225 26.7668 10.5274 27.2598C9.56873 27.2325 8.61003 27.2648 7.65382 27.2399C8.17177 26.3933 9.29979 26.9436 10.1016 26.849C10.0966 26.6921 10.0917 26.3784 10.0892 26.2215C9.28735 26.1293 8.18421 26.6398 7.64136 25.8305Z" fill="#444444"/>
<path d="M7.65382 27.2395C7.67623 26.7713 7.6812 26.2982 7.64136 25.8301C8.18421 26.6394 9.28735 26.1289 10.0892 26.221C10.0917 26.3779 10.0966 26.6916 10.1016 26.8485C9.29979 26.9432 8.17177 26.3928 7.65382 27.2395Z" fill="#444444"/>
<path d="M13.2159 26.2326C15.482 26.2127 17.7455 26.2177 20.0115 26.2351C20.0141 26.3796 20.0215 26.6709 20.024 26.8178C17.7505 26.8627 15.4795 26.8128 13.2085 26.8328C13.211 26.6834 13.2159 26.3821 13.2159 26.2326Z" fill="#444444"/>
<path d="M12.8718 25.7933C15.367 25.7709 17.8621 25.7933 20.3572 25.7783C20.3548 26.2714 20.3572 26.7645 20.3647 27.26C17.8646 27.2401 15.367 27.2475 12.8694 27.255C12.8694 26.7669 12.8718 26.2789 12.8718 25.7933ZM13.2155 26.2341C13.2155 26.3834 13.2106 26.6848 13.208 26.8342C15.479 26.8143 17.75 26.8641 20.0236 26.8193C20.0211 26.6723 20.0136 26.381 20.0111 26.2365C17.7451 26.2191 15.4816 26.2141 13.2155 26.2341Z" fill="#444444"/>
<path d="M23.1006 25.8157C24.0569 25.7584 25.0156 25.7958 25.9768 25.7783C25.9643 26.2689 25.9618 26.7595 25.9618 27.25C24.9932 27.2376 24.0245 27.2849 23.0608 27.1953C23.6585 26.5105 24.657 26.9014 25.4439 26.8093C25.4788 26.6549 25.5485 26.3461 25.5833 26.1917C24.7765 26.0946 23.6485 26.6374 23.1006 25.8157Z" fill="#444444"/>
<path d="M23.0608 27.194C23.1131 26.7358 23.123 26.2726 23.1006 25.8145C23.6485 26.6362 24.7765 26.0933 25.5833 26.1905C25.5485 26.3448 25.4788 26.6536 25.4439 26.808C24.657 26.9001 23.6585 26.5092 23.0608 27.194Z" fill="#444444"/>
<path d="M12.8817 29.4619C15.3694 29.4719 17.8571 29.4694 20.3472 29.4644C20.3497 29.9599 20.3547 30.458 20.3646 30.956C17.8645 30.9186 15.3619 30.9186 12.8618 30.9535C12.8693 30.4555 12.8768 29.9574 12.8817 29.4619ZM13.076 29.9997C13.4594 30.6323 14.2389 30.5376 14.8788 30.5451C16.5846 30.5152 18.2928 30.5501 20.001 30.5227C20.006 30.3883 20.021 30.1193 20.026 29.9848C17.7102 29.9699 15.3918 29.9326 13.076 29.9997Z" fill="#444444"/>
<path d="M23.118 29.4629C24.0667 29.4703 25.0155 29.4753 25.9642 29.4629C25.9667 29.9484 25.9717 30.4315 25.9892 30.9172C25.0304 30.942 24.0717 30.9296 23.1155 30.9246C23.1155 30.4365 23.1155 29.951 23.118 29.4629Z" fill="#444444"/>
<path d="M7.64073 30.8501C7.65567 30.4193 7.6482 29.986 7.62329 29.5527C8.3554 30.0483 9.25932 29.8515 10.0861 29.9561C10.0935 30.0981 10.1134 30.3795 10.1209 30.5189C9.30164 30.6484 8.32303 30.2325 7.64073 30.8501Z" fill="#444444"/>
<path d="M13.0762 29.9988C15.392 29.9316 17.7104 29.9689 20.0262 29.9838C20.0212 30.1183 20.0062 30.3873 20.0013 30.5217C18.2931 30.5491 16.5848 30.5143 14.8791 30.5441C14.2391 30.5366 13.4597 30.6313 13.0762 29.9988Z" fill="#444444"/>
</g>
<defs>
<clipPath id="clip0_973_6190">
<rect width="33" height="33" fill="white"/>
</clipPath>
</defs>
</svg>
