<svg width="33" height="33" viewBox="0 0 33 33" fill="none" xmlns="http://www.w3.org/2000/svg">
<path d="M19.6304 9.4074C20.2715 9.11388 20.0002 7.97697 19.2875 8.00902C18.8239 7.9227 18.6167 8.36415 18.3997 8.68725C18.4761 8.90674 18.5501 9.13117 18.6191 9.3556C18.9521 9.41728 19.3245 9.66634 19.6304 9.4074Z" fill="#444444"/>
<path d="M19.6278 1.57533C19.6179 1.11413 19.0975 0.884778 18.7127 1.05742C17.159 2.10804 16.2983 4.09092 14.4264 4.68036C12.4706 5.4153 10.8996 6.95672 9.8786 8.7546C8.8847 10.4416 8.49504 12.3849 7.94012 14.2396C7.66884 15.3938 7.20517 16.5036 7.01773 17.6775C7.47399 18.6419 8.45804 19.2362 9.14119 20.0402C9.61472 20.6173 10.5198 21.0415 10.4162 21.9072C10.431 23.6508 10.3842 25.3969 10.4286 27.1455C9.0376 28.5982 7.52333 29.9324 6.14962 31.4023C5.79941 31.7747 6.13728 32.2383 6.41596 32.5318H26.5259C26.5333 32.1323 26.8366 31.6391 26.479 31.3234C25.6282 30.4404 24.6934 29.6414 23.8154 28.7856C23.3 28.2578 22.6094 27.8558 22.2789 27.18C22.2 25.7891 22.2987 24.3981 22.2494 23.0071C22.7574 22.4793 23.374 22.028 23.7439 21.3868C23.7316 20.6321 23.3049 19.9588 22.9498 19.3176C21.8721 17.3027 19.386 16.59 18.4045 14.4886C18.5327 14.4911 18.7867 14.4911 18.9125 14.4936C19.6179 14.3358 20.4342 13.8696 21.0508 14.4862C21.4651 14.3851 21.8696 14.2445 22.2716 14.1188C23.1644 14.4196 24.0571 14.8685 25.0214 14.8315C25.8551 14.7353 26.331 13.9412 26.6812 13.2704C27.061 12.5773 27.1967 11.6081 26.5456 11.0309C25.3815 9.87922 24.0128 8.95439 22.7919 7.86182C22.1828 7.43025 22.6834 6.33768 21.9263 6.06392C21.1914 5.71618 20.4243 5.44243 19.6746 5.12428C19.64 3.94047 19.7486 2.75173 19.6278 1.57533ZM18.2096 3.59273C18.2762 4.41892 18.0296 5.32405 18.3601 6.11325C19.1838 6.57691 20.0914 6.86299 20.9496 7.24774C20.9916 7.65221 20.8658 8.15534 21.2259 8.4562C22.5922 9.72635 24.1558 10.772 25.5024 12.0643C25.4777 12.5872 25.0856 12.9941 24.8537 13.443C23.8499 13.2333 22.8857 12.5329 21.8671 12.6069C20.4589 13.4676 18.8139 12.962 17.3094 12.7327C16.614 12.9176 16.7521 13.734 16.8606 14.2716C17.2873 16.1189 18.7547 17.4729 20.2566 18.5087C21.1667 19.0883 21.6945 20.0501 22.1926 20.9725C21.7389 21.4583 21.2752 21.9343 20.809 22.4128C20.8017 23.9147 20.7968 25.4167 20.8066 26.9211C17.8249 26.8816 14.8432 26.9161 11.859 26.9087C11.9059 25.5178 11.8911 24.1244 11.8639 22.7359C12.3227 23.1724 12.6876 23.7446 13.2549 24.0429C13.9553 24.3241 14.5694 23.308 14.0047 22.8173C12.372 21.1648 10.7369 19.5124 9.07213 17.8946C8.88469 17.6529 8.47036 17.3939 8.66519 17.0363C9.2497 15.1028 9.74542 13.1421 10.3571 11.2184C11.1907 8.85079 12.954 6.66323 15.4055 5.88389C16.6608 5.60274 17.2503 4.3252 18.2096 3.59273ZM21.6698 28.3071L21.248 28.3367C22.1482 29.2961 23.157 30.147 24.0818 31.0817C18.9002 31.0718 13.7185 31.0644 8.53449 31.0866C9.44454 30.1593 10.4039 29.2813 11.309 28.349L10.8848 28.3269C11.4225 27.9964 12.0711 28.0556 12.6704 28.0432C15.223 28.0728 17.7731 28.0581 20.3257 28.0482C20.7869 28.0432 21.2678 28.0581 21.6698 28.3071Z" fill="#444444"/>
<path d="M21.0514 14.486C20.4348 13.8694 19.6185 14.3356 18.9131 14.4934C19.6283 14.5279 20.3435 14.5526 21.0514 14.486Z" fill="#444444"/>
<path d="M21.6694 28.3079C21.2673 28.0588 20.7864 28.0439 20.3252 28.0489C17.7726 28.0588 15.2225 28.0736 12.67 28.0439C12.0707 28.0563 11.422 27.9971 10.8844 28.3276L11.3086 28.3498C14.6208 28.3522 17.9355 28.3794 21.2476 28.3375L21.6694 28.3079Z" fill="#444444"/>
</svg>
