<svg width="33" height="33" viewBox="0 0 33 33" fill="none" xmlns="http://www.w3.org/2000/svg">
<path d="M15.8786 1.19678C16.2547 1.12695 16.6309 1.0603 17.0102 1C17.1231 2.84722 17.0917 4.6976 17.0886 6.55117C20.7438 6.56704 24.3989 6.54483 28.0541 6.55752C29.6654 10.3376 31.1983 14.1463 32.7595 17.9487C33.2109 18.9199 32.9601 20.0339 32.5557 20.9766C31.4554 23.557 28.2297 24.8615 25.6748 23.7538C23.2924 22.8968 21.5431 19.8181 22.7971 17.4123C24.1168 14.2162 25.4616 11.0296 26.6999 7.79851C23.4993 7.80169 20.2986 7.77313 17.098 7.81122C17.0855 15.4667 17.098 23.1222 17.0917 30.7808C19.819 30.8665 22.562 30.6062 25.2767 30.9363C25.2046 31.1934 25.0573 31.7076 24.9852 31.9647C19.3394 32.0155 13.6873 32.0059 8.04155 31.971C7.94124 31.7203 7.74374 31.2156 7.64343 30.9649C10.3644 30.5777 13.1293 30.8697 15.8692 30.7776C15.8597 23.1158 15.8911 15.454 15.8566 7.79535C12.656 7.80488 9.45848 7.78265 6.26098 7.80169C7.50863 11.0232 8.85346 14.2067 10.1826 17.3964C11.6967 20.418 8.79704 24.1156 5.64343 24.1188C2.59953 24.4743 -0.431822 21.5162 0.0509375 18.4375C1.63088 14.4606 3.22963 10.4837 4.93496 6.5607C8.5776 6.55118 12.2234 6.55118 15.8692 6.5607C15.8754 4.77061 15.866 2.98369 15.8786 1.19678ZM5.28292 8.74435C4.10737 11.8802 2.74373 14.943 1.52429 18.0629C4.04468 18.0852 6.56506 18.1074 9.08544 18.0661C7.82211 14.9557 6.52744 11.8611 5.28292 8.74435ZM23.8848 18.0629C26.4021 18.0979 28.9193 18.082 31.4397 18.0693C30.2328 14.9811 28.9695 11.9151 27.6654 8.86814C26.3613 11.9151 25.1638 15.0065 23.8848 18.0629ZM1.17947 19.3611C1.6058 21.2686 3.28605 23.0015 5.31741 22.8555C7.32995 22.9666 9.05409 21.2908 9.40519 19.3516C6.66537 19.3484 3.92242 19.3325 1.17947 19.3611ZM23.5557 19.3547C23.9162 21.2781 25.6121 22.9095 27.5964 22.8683C29.6341 23.0016 31.4429 21.3416 31.772 19.3516C29.0322 19.342 26.2924 19.3452 23.5557 19.3547Z" fill="#444444"/>
</svg>
