<svg width="33" height="33" viewBox="0 0 33 33" fill="none" xmlns="http://www.w3.org/2000/svg">
<path d="M5.0167 1.06149C12.7849 0.954293 20.5586 1.01751 28.3268 1.02851C29.0643 0.907569 29.2397 1.90804 28.6329 2.19389C27.9093 2.26536 27.1829 2.23237 26.462 2.23512C26.5204 4.77478 26.526 7.46012 25.2373 9.74692C24.1324 11.8468 22.262 13.3723 20.5475 14.9609C19.9073 15.5629 19.0584 16.5084 19.7487 17.3824C21.4548 19.4548 23.8735 20.95 25.1427 23.3715C26.5232 25.6775 26.526 28.4371 26.4536 31.0317C27.1801 31.0317 27.9093 30.9932 28.6329 31.0757C29.2035 31.3588 29.0699 32.3455 28.349 32.2163C25.652 32.2108 22.9578 32.3345 20.2608 32.2576C17.6668 32.4802 15.0727 32.1256 12.4787 32.2823C10.4358 32.2218 8.39285 32.2328 6.35269 32.2493C5.89902 32.2328 5.44811 32.2136 5 32.1916C5.00835 31.8068 5.02227 31.4248 5.04176 31.0455C5.82108 31.029 6.59761 31.029 7.37971 31.04C7.42703 29.7097 7.33519 28.3684 7.53002 27.0463C7.77773 24.6386 9.04135 22.415 10.7642 20.7274C11.8052 19.6362 13.0103 18.7017 13.9956 17.5611C14.491 17.0443 14.4771 16.162 13.965 15.6646C12.8405 14.3975 11.4712 13.3695 10.3439 12.1079C8.87713 10.5632 7.82782 8.59252 7.55506 6.47889C7.32961 5.07438 7.42982 3.65062 7.40755 2.23787C6.60597 2.22962 5.80716 2.21863 5.00836 2.19114C5.00557 1.81459 5.00835 1.43804 5.0167 1.06149ZM8.70178 2.23787C8.74353 4.10688 8.50139 6.04186 9.1833 7.83392C9.84572 9.85961 11.3209 11.4868 12.899 12.883C13.9038 13.8395 15.1312 14.7026 15.6071 16.0576C15.9523 17.3659 14.9642 18.4873 14.0902 19.3366C12.4398 20.7988 10.6946 22.2721 9.68429 24.2648C9.03856 25.4906 8.77694 26.8649 8.64891 28.2282C9.72883 27.8077 10.5889 27.0051 11.6048 26.4691C13.3777 25.4741 15.3761 24.6358 17.458 24.7705C20.3693 25.0728 22.8493 26.755 25.1733 28.3821C25.1844 26.2905 24.4218 24.2428 23.1137 22.6101C22.0254 21.1919 20.5642 20.1255 19.3173 18.8556C18.6855 18.1685 18.0509 17.2917 18.2151 16.3077C18.4155 15.4282 19.0055 14.6998 19.6624 14.0979C21.4214 12.4268 23.4143 10.8436 24.3856 8.56229C25.3765 6.59433 25.1371 4.34601 25.1316 2.22138C19.6568 2.24886 14.1793 2.21863 8.70178 2.23787ZM8.69901 30.0312C8.69901 30.3638 8.70178 30.6964 8.70735 31.0317C14.1877 31.029 19.6652 31.0262 25.1455 31.0317C25.1455 30.7816 25.1483 30.2786 25.1483 30.0257C22.8966 28.2584 20.4278 26.4416 17.4998 26.0623C14.1097 25.8837 11.2346 28.0798 8.69901 30.0312Z" fill="#444444"/>
<path d="M11.7649 9.40327C11.5664 9.09039 11.7331 8.69317 11.7172 8.34765C15.121 8.32044 18.5274 8.33949 21.9311 8.33949C22.0317 8.51089 22.2328 8.85097 22.3334 9.02237C21.4812 10.2576 20.4489 11.3458 19.3214 12.3198C18.403 13.1034 17.7519 14.1454 16.9049 14.9997C16.2194 14.3277 15.6953 13.5088 15.0257 12.8231C13.9352 11.6886 12.6383 10.7418 11.7649 9.40327ZM13.5806 9.65357C14.6287 10.8561 15.8647 11.8627 16.897 13.0789C17.9715 11.8927 19.1732 10.8371 20.2398 9.63997C18.0218 9.60732 15.8012 9.60188 13.5806 9.65357Z" fill="#444444"/>
<path d="M16.3333 17.3092C16.6679 17.2054 17.0188 16.8548 17.3751 17.069C17.6396 17.4099 17.5937 17.9 17.6666 18.3252C17.2509 18.3349 16.8353 18.3382 16.4223 18.3284C16.3899 17.9876 16.3602 17.6501 16.3333 17.3092Z" fill="#444444"/>
<path d="M16.4578 19.7419C16.8485 19.6751 17.242 19.6784 17.6383 19.665C17.6496 20.1095 17.6553 20.5539 17.6666 20.9984C17.2193 20.9984 16.7749 20.9883 16.3333 20.965C16.3644 20.5573 16.3927 20.1462 16.4578 19.7419Z" fill="#444444"/>
<path d="M16.527 22.334C16.8857 22.3677 17.2501 22.4044 17.6145 22.4411C17.629 22.839 17.6463 23.2369 17.6666 23.6348C17.2154 23.6287 16.7208 23.7817 16.3333 23.4726C16.3651 23.0869 16.4518 22.7104 16.527 22.334Z" fill="#444444"/>
</svg>
