<svg width="27" height="27" viewBox="0 0 27 27" fill="none" xmlns="http://www.w3.org/2000/svg">
<path d="M25.7723 14.7266C25.4041 14.7266 25.1587 14.972 25.1587 15.3402V23.3175C25.1587 23.6857 24.9132 23.9311 24.5451 23.9311H2.45413C2.08594 23.9311 1.84052 23.6856 1.84052 23.3175V15.3402C1.84052 14.972 1.59504 14.7266 1.2269 14.7266C0.85876 14.7266 0.613281 14.972 0.613281 15.3402V23.3175C0.613281 24.3607 1.41099 25.1584 2.45419 25.1584H24.5451C25.5883 25.1584 26.386 24.3607 26.386 23.3175V15.3402C26.386 14.972 26.1405 14.7266 25.7723 14.7266Z" fill="#444444"/>
<path d="M25.1591 6.13672H1.8409C0.797713 6.13672 0 6.93443 0 7.97762V11.9049C0 12.7639 0.613617 13.5003 1.41138 13.6844L11.0455 15.8321V17.7958C11.0455 18.1639 11.291 18.4094 11.6591 18.4094H15.3409C15.7091 18.4094 15.9545 18.1639 15.9545 17.7958V15.8321L25.5886 13.6844C26.3864 13.5003 27 12.7639 27 11.9049V7.97757C27 6.93443 26.2023 6.13672 25.1591 6.13672ZM14.7273 17.1821H12.2728V14.7276H14.7273V17.1821ZM25.7727 11.9049C25.7727 12.2117 25.5886 12.4571 25.2818 12.5185L15.9545 14.6049V14.1139C15.9545 13.7458 15.709 13.5003 15.3409 13.5003H11.6591C11.2909 13.5003 11.0455 13.7458 11.0455 14.1139V14.6049L1.71819 12.5185C1.41138 12.4571 1.22729 12.2117 1.22729 11.9049V7.97762C1.22729 7.60943 1.47277 7.364 1.8409 7.364H25.1591C25.5273 7.364 25.7727 7.60948 25.7727 7.97762V11.9049Z" fill="#444444"/>
<path d="M16.5671 1.83984H10.4307C9.38756 1.83984 8.58984 2.63756 8.58984 3.68075V4.29436C8.58984 4.66255 8.83532 4.90798 9.20346 4.90798C9.5716 4.90798 9.81708 4.6625 9.81708 4.29436V3.68075C9.81708 3.31256 10.0626 3.06713 10.4307 3.06713H16.5671C16.9353 3.06713 17.1807 3.31261 17.1807 3.68075V4.29436C17.1807 4.66255 17.4262 4.90798 17.7943 4.90798C18.1625 4.90798 18.4079 4.6625 18.4079 4.29436V3.68075C18.408 2.63756 17.6103 1.83984 16.5671 1.83984Z" fill="#444444"/>
</svg>
