<svg width="33" height="33" viewBox="0 0 33 33" fill="none" xmlns="http://www.w3.org/2000/svg">
<g clip-path="url(#clip0_972_4883)">
<path d="M27.717 8.9802C28.583 7.9395 29.6813 6.68571 31.1416 6.80924C32.1373 8.84432 32.6653 11.4939 31.2261 13.4549C30.3511 14.5265 29.2498 15.842 27.7412 15.6753C26.7395 13.6248 26.2114 10.9195 27.717 8.9802ZM28.2752 11.0616C27.9705 12.0838 28.2722 13.1461 28.6524 14.1034C29.464 13.3499 30.4114 12.5624 30.6468 11.4075C30.8912 10.4007 30.5925 9.38166 30.333 8.41507C29.458 9.10373 28.5166 9.90046 28.2752 11.0616Z" fill="#444444"/>
<path d="M9.27277 1.2255C9.62876 0.98618 10.245 0.8725 10.4574 1.36311C11.3997 3.16998 11.8156 5.55721 10.589 7.33716C9.84116 8.453 8.72532 9.48507 7.39709 9.77824C6.45177 9.20686 6.3351 7.86068 6.10775 6.85254C5.63509 4.48326 7.27743 2.30245 9.27277 1.2255ZM7.67231 4.77343C7.20265 5.84439 7.47786 7.05596 7.80693 8.12692C8.69541 7.50767 9.54799 6.7239 9.86808 5.65593C10.1613 4.65378 9.84415 3.62469 9.58389 2.65843C8.83302 3.24178 8.01335 3.84606 7.67231 4.77343Z" fill="#444444"/>
<path d="M2.99352 7.24758C3.53499 6.99929 4.0226 7.44502 4.45936 7.70529C5.95512 8.69548 7.20259 10.3468 7.07395 12.2225C7.00515 13.5627 6.78078 15.1482 5.66494 16.0426C4.29184 15.3277 2.94267 14.3614 2.25761 12.9285C1.51871 11.4237 1.74607 9.63482 2.37129 8.13308C2.55377 7.83692 2.59565 7.32836 2.99352 7.24758ZM3.52901 8.81215C3.31661 9.7455 3.02643 10.7207 3.28071 11.681C3.49909 12.7939 4.42945 13.5477 5.2222 14.2717C6.34402 12.3421 5.51836 9.77542 3.52901 8.81215Z" fill="#444444"/>
<path d="M16.5331 8.47266C16.8353 8.47266 17.1374 8.47266 17.4426 8.47565C18.0708 9.6573 18.6362 10.8689 19.2195 12.0744C20.6345 12.2659 22.0614 12.4095 23.4435 12.7804C23.3987 12.9988 23.3089 13.4416 23.264 13.6599C22.4623 14.6023 21.511 15.407 20.6225 16.2626C20.7392 17.6147 21.176 18.94 21.173 20.2951C21.0443 20.4297 20.7901 20.699 20.6614 20.8336C19.417 20.2293 18.2054 19.5712 16.9849 18.928C15.6656 19.5622 14.457 20.4477 13.0271 20.8186C12.4946 19.3109 13.2754 17.7703 13.3621 16.2476C12.4078 15.3531 11.3877 14.5155 10.571 13.4894C10.58 13.3189 10.595 12.9749 10.604 12.8044C11.9292 12.3317 13.3621 12.3078 14.7412 12.0714C15.3276 10.8659 15.9139 9.66029 16.5331 8.47266ZM15.6088 13.2591C14.6724 13.5193 13.6972 13.5881 12.7429 13.7587C13.41 14.4587 14.2207 15.036 14.7681 15.8437C14.7502 16.8279 14.5049 17.7912 14.3583 18.7635C15.2318 18.3207 16.0575 17.7553 16.9908 17.4382C17.9242 17.7553 18.7469 18.3297 19.6204 18.7754C19.4738 17.8062 19.2195 16.8489 19.2076 15.8647C19.749 15.057 20.5777 14.4707 21.2268 13.7467C20.2785 13.5702 19.2793 13.5732 18.3729 13.2322C17.7716 12.4514 17.4246 11.518 16.9819 10.6475C16.5301 11.521 16.1921 12.4633 15.6088 13.2591Z" fill="#444444"/>
<path d="M2.84102 21.325C1.5068 20.0745 0.860641 18.1719 1.02517 16.362C2.96667 16.1108 5.18936 16.3501 6.6193 17.8279C7.783 19.0783 8.37232 20.8703 8.1689 22.5694C6.3351 22.8117 4.27395 22.6113 2.84102 21.325ZM2.39828 17.6633C2.7094 18.6176 3.00854 19.6527 3.80428 20.3288C4.61498 21.0827 5.76074 21.2053 6.80777 21.3549C6.5475 20.1762 6.05989 18.9228 4.97696 18.2736C4.21113 17.774 3.28077 17.7112 2.39828 17.6633Z" fill="#444444"/>
<path d="M8.64764 23.06C10.7417 22.4168 12.9464 23.4908 14.3465 25.0344C14.6396 25.2827 14.6546 25.8092 14.3704 26.0665C13.0182 27.3528 11.1186 28.2921 9.21602 27.9092C7.80702 27.6131 6.52366 26.7754 5.60826 25.6775C5.16551 25.2797 5.64117 24.816 5.96126 24.5617C6.74504 23.8916 7.64847 23.3352 8.64764 23.06ZM7.43906 25.1421C7.3194 25.8301 8.17498 25.9946 8.62969 26.2848C10.0596 27.0148 11.7289 26.4464 12.8956 25.4831C12.1477 24.9566 11.3639 24.4091 10.4366 24.2805C9.36261 24.0891 8.31558 24.5677 7.43906 25.1421Z" fill="#444444"/>
<path d="M23.6229 1.25477C23.8203 0.752199 24.4964 1.11717 24.8165 1.29965C26.2554 2.15822 27.5657 3.48046 27.8619 5.1946C28.0743 6.57668 27.7691 8.0156 27.132 9.25409C26.9884 9.57119 26.5965 9.98102 26.2255 9.72674C24.5084 9.01177 23.0605 7.48311 22.6955 5.62538C22.4652 4.12663 22.8152 2.53514 23.6229 1.25477ZM24.3857 2.65181C24.1315 3.63004 23.8144 4.6651 24.1075 5.67623C24.4246 6.73822 25.2682 7.53695 26.1866 8.10833C26.4768 7.01344 26.7819 5.7959 26.2764 4.71895C25.9084 3.82748 25.1276 3.21721 24.3857 2.65181Z" fill="#444444"/>
<path d="M19.6054 25.058C20.5627 23.987 21.873 23.1763 23.2939 22.919C25.2534 22.6199 27.0752 23.6849 28.4842 24.9413C28.4902 25.1028 28.4962 25.4259 28.4992 25.5845C27.4132 26.7392 26.0581 27.7593 24.4427 27.9627C22.6926 28.1991 21.0293 27.3046 19.734 26.2067C19.39 25.9405 19.2045 25.3631 19.6054 25.058ZM21.0682 25.5037C21.9777 26.1349 23.0307 26.7362 24.1824 26.6016C25.1816 26.5208 26.0192 25.9165 26.8239 25.3721C26.0252 24.8336 25.1726 24.2622 24.1734 24.2413C23.0037 24.1665 21.9717 24.8396 21.0682 25.5037Z" fill="#444444"/>
<path d="M16.4195 26.9069C16.7097 26.5748 17.296 26.5449 17.5653 26.9218C18.72 28.0586 19.764 29.3001 20.8619 30.4937C20.841 30.7151 20.8021 31.1578 20.7841 31.3792C20.5837 31.3881 20.1858 31.4031 19.9884 31.4121C18.8576 30.5296 18.014 29.3419 16.9939 28.3398C15.9588 29.327 15.1212 30.5296 13.9874 31.4031C13.793 31.4091 13.4041 31.4181 13.2096 31.424C13.1797 31.1937 13.1169 30.73 13.084 30.4997C14.2297 29.333 15.2498 28.0496 16.4195 26.9069Z" fill="#444444"/>
<path d="M28.5292 16.9512C29.7677 16.323 31.2156 16.1555 32.5827 16.329C33.1571 16.5025 32.9776 17.1397 32.9596 17.5884C32.7143 19.2248 31.9425 20.8941 30.5006 21.7975C29.1155 22.689 27.3834 22.7877 25.7919 22.5693C25.5646 20.4065 26.5488 17.9953 28.5292 16.9512ZM28.8223 18.3962C27.8232 19.0453 27.4642 20.2539 27.1471 21.3338C28.1941 21.2052 29.3518 21.1035 30.1566 20.3346C30.9703 19.6675 31.2754 18.6235 31.5865 17.6632C30.6292 17.7051 29.6151 17.7949 28.8223 18.3962Z" fill="#444444"/>
</g>
<defs>
<clipPath id="clip0_972_4883">
<rect width="33" height="33" fill="white"/>
</clipPath>
</defs>
</svg>
