<svg width="48" height="49" viewBox="0 0 48 49" fill="none" xmlns="http://www.w3.org/2000/svg">
<path d="M16.6266 0.834161C19.6409 -0.762458 23.5632 0.0157194 25.8888 2.46208C27.7359 4.36282 28.4514 7.20275 27.8342 9.76987C28.7779 9.70278 29.7573 9.72962 30.6384 9.32263C30.4014 8.21797 31.1438 7.30562 31.8414 6.56768C33.3039 5.06498 35.4998 4.74297 37.4945 4.56408C38.4784 4.58644 39.829 4.42991 40.3791 5.4496C39.7172 7.98541 38.4828 10.32 37.5884 12.7708C41.1483 14.8817 43.2727 18.7816 43.7602 22.8246C45.16 22.8917 46.5599 22.9945 47.9418 23.245C48.0268 26.8273 48.0089 30.4096 47.9508 33.992C46.1395 34.3945 44.2834 34.2827 42.4453 34.3587C41.609 37.8292 38.9301 40.5707 35.5982 41.7514C35.0392 43.7685 34.5159 45.7989 34.0195 47.8383C31.4345 48.2631 28.8047 48.1871 26.2153 47.8606C25.7188 46.3713 25.2179 44.8865 24.6678 43.4151C23.1964 43.4062 21.725 43.4151 20.2537 43.4017C19.6723 44.8418 19.1669 46.3087 18.7152 47.7936C17.9772 47.9232 17.2348 48.0395 16.5014 48.1603C14.6364 48.1782 12.7759 48.12 10.9289 47.883C10.182 45.8302 10.021 43.5359 9.1131 41.5815C6.00931 39.7165 3.25435 37.136 1.71587 33.8131C-0.0104419 30.5214 -0.301144 26.6708 0.257896 23.0527C1.14789 18.2986 4.21143 13.9783 8.41541 11.5946C9.46641 11.3218 9.58269 12.4041 9.88234 13.1062C6.6399 15.0383 3.93862 18.0258 2.79818 21.6707C1.06291 26.8497 2.44934 32.9186 6.3179 36.7827C7.62829 38.2183 9.42169 39.0546 10.8886 40.2979C11.8636 42.0153 12.0201 44.0547 12.5523 45.9375C14.0595 45.9599 15.5622 45.9644 17.0694 45.9554C17.5792 44.4661 18.0801 42.9724 18.5899 41.4831C21.1749 41.3981 23.7689 41.3758 26.3539 41.5368C26.8369 43.0261 27.3333 44.5153 27.879 45.9867C29.3548 45.9733 30.8307 45.9599 32.311 45.942C32.7985 44.0592 33.2636 42.1674 33.7601 40.2845C35.5222 39.4571 37.4497 38.7192 38.6886 37.136C39.9006 35.763 40.1376 33.8802 40.9918 32.3193C42.584 32.0376 44.2164 32.1762 45.8219 32.1538C45.9069 29.8059 45.8935 27.4579 45.8622 25.1099C44.6233 25.0742 43.389 25.0473 42.1546 25.0115C41.4748 22.3147 41.0902 19.4077 39.3594 17.1313C38.2682 15.6599 36.515 14.922 35.2851 13.5982C35.6474 11.1518 36.9623 8.97825 37.6197 6.61239C36.6179 6.80918 35.5892 6.91652 34.6277 7.27878C33.4917 7.87807 32.8075 9.05876 31.7207 9.7296C30.4371 10.0382 29.0999 9.91297 27.794 10.0114C26.9129 13.1554 24.1222 15.7717 20.7501 15.8075C17.6418 16.1608 14.6141 14.4077 13.1114 11.7153C11.0094 7.93173 12.6462 2.62309 16.6266 0.834161ZM17.539 2.73938C15.4951 3.72329 14.131 5.99075 14.3457 8.27164C14.3412 11.7377 18.0399 14.5329 21.3762 13.6653C24.6634 13.066 26.8816 9.23318 25.6562 6.10256C24.6678 2.84671 20.5533 1.10698 17.539 2.73938Z" fill="black"/>
<path d="M33.5457 17.6718C36.1173 16.5806 39.0601 19.5815 37.9599 22.1307C37.3204 24.273 34.4536 25.1182 32.6781 23.8302C30.4062 22.3946 30.9116 18.4098 33.5457 17.6718ZM34.1316 19.6978C32.9107 20.0958 33.0806 22.1889 34.4223 22.3365C35.7372 22.7524 36.578 20.7846 35.6164 19.9527C35.2944 19.4652 34.6102 19.6531 34.1316 19.6978Z" fill="black"/>
</svg>
